<svg width="114" height="114" viewBox="0 0 114 114" fill="none" xmlns="http://www.w3.org/2000/svg">
<g clip-path="url(#clip0)">
<path d="M55.1745 73.8369L40.1695 58.0257C39.9721 57.8177 39.8654 57.5399 39.8729 57.2532C39.8804 56.9666 40.0015 56.6947 40.2095 56.4973L64.7578 33.2005C64.7861 33.1737 64.8143 33.1469 64.8425 33.1201C69.7308 29.3947 76.1428 28.4337 84.443 30.1818C84.6574 30.227 84.853 30.3364 85.0038 30.4953C85.1547 30.6543 85.2536 30.8553 85.2876 31.0718C86.6068 39.4584 85.3074 45.8081 81.3254 50.4933C81.3008 50.5226 81.2746 50.5505 81.2468 50.5769L56.6992 73.8729C56.4919 74.0697 56.2151 74.1763 55.9294 74.1696C55.6437 74.1628 55.3723 74.0432 55.1745 73.8369ZM42.482 57.3215L55.9987 71.5643L79.7206 49.0519C83.1785 44.961 84.312 39.575 83.2695 32.1554C75.9152 30.7303 70.4774 31.5806 66.2061 34.8129L42.482 57.3215Z" fill="white"/>
<path d="M34.7153 55.5232C34.6125 55.415 34.5332 55.2868 34.4823 55.1464C34.4315 55.0061 34.4103 54.8568 34.42 54.7079L34.565 52.5553C34.6976 50.3622 35.4596 48.2538 36.7596 46.4827C38.0596 44.7115 39.8427 43.3527 41.8952 42.5688L42.0272 42.5195C46.4229 40.8985 51.2744 41.0355 55.5715 42.9021C55.7268 42.9799 55.861 43.094 55.9628 43.2347C56.0646 43.3753 56.1311 43.5385 56.1565 43.7102C56.182 43.882 56.1656 44.0574 56.109 44.2215C56.0523 44.3857 55.9569 44.5337 55.8308 44.6532L44.7984 55.1232C44.6652 55.2494 44.5022 55.3396 44.3245 55.3854C44.1468 55.4312 43.9605 55.431 43.7829 55.3849C41.1651 54.7836 38.4316 54.9237 35.889 55.7894C35.7194 55.854 35.5363 55.8749 35.3566 55.8502C35.1768 55.8254 35.0062 55.7558 34.8604 55.6478C34.8085 55.6105 34.76 55.5688 34.7153 55.5232ZM42.2716 43.5827L42.6481 44.5951C40.9857 45.2334 39.5426 46.3375 38.4916 47.7751C37.4406 49.2126 36.8263 50.9227 36.7223 52.7004L36.6812 53.3057C38.9931 52.7443 41.3994 52.6922 43.7335 53.153L53.087 44.2763C49.7054 43.2636 46.0885 43.3598 42.7655 44.5508L42.2716 43.5827Z" fill="white"/>
<path d="M57.3952 79.4215C57.3513 79.3753 57.3114 79.3253 57.276 79.2723C57.1757 79.1211 57.1151 78.947 57.0998 78.7662C57.0845 78.5854 57.1149 78.4036 57.1883 78.2377C58.1858 75.7438 58.4686 73.0214 58.005 70.3757C57.9682 70.196 57.9778 70.0099 58.0328 69.8349C58.0878 69.6598 58.1864 69.5017 58.3194 69.3753L69.3542 58.9031C69.4801 58.7835 69.633 58.696 69.7999 58.6479C69.9667 58.5999 70.1427 58.5928 70.3129 58.6272C70.4831 58.6616 70.6426 58.7364 70.7777 58.8455C70.9129 58.9545 71.0198 59.0945 71.0894 59.2536C72.7287 63.6425 72.6119 68.4945 70.7633 72.7994L70.7072 72.9287C69.8171 74.9374 68.3669 76.647 66.5302 77.8526C64.6935 79.0583 62.5482 79.709 60.3512 79.7267L58.1939 79.759C58.0447 79.7609 57.8967 79.7319 57.7592 79.6738C57.6217 79.6157 57.4978 79.5298 57.3952 79.4215ZM60.2336 70.5396C60.5717 72.8945 60.3939 75.2948 59.7124 77.5742L60.319 77.5648C62.0991 77.5537 63.8383 77.0297 65.3283 76.0558C66.8183 75.0818 67.9961 73.699 68.7207 72.073L69.7609 72.384L68.7656 71.9633C70.1287 68.7072 70.4139 65.1002 69.5793 61.6703L60.2336 70.5396Z" fill="white"/>
<path d="M69.2158 45.4927C68.4404 44.6759 67.9246 43.6476 67.7336 42.5377C67.5427 41.4277 67.6852 40.2861 68.1431 39.2572C68.601 38.2283 69.3537 37.3582 70.3061 36.7571C71.2585 36.156 72.3678 35.8508 73.4936 35.8802C74.6194 35.9095 75.7113 36.2721 76.6311 36.922C77.5509 37.5719 78.2573 38.4799 78.6609 39.5313C79.0646 40.5827 79.1475 41.7302 78.899 42.8287C78.6505 43.9271 78.0818 44.9272 77.2649 45.7025C76.1688 46.7403 74.7059 47.3011 73.197 47.2617C71.688 47.2224 70.2563 46.5862 69.2158 45.4927ZM75.9071 39.1426C75.4263 38.6356 74.806 38.2827 74.1246 38.1284C73.4433 37.9741 72.7314 38.0253 72.0792 38.2756C71.4269 38.5259 70.8635 38.964 70.4603 39.5345C70.057 40.105 69.832 40.7823 69.8138 41.4807C69.7955 42.1791 69.9848 42.8672 70.3576 43.458C70.7305 44.0488 71.2702 44.5158 71.9085 44.7998C72.5468 45.0839 73.255 45.1722 73.9435 45.0538C74.632 44.9353 75.2699 44.6152 75.7765 44.1342C76.4547 43.489 76.8493 42.6011 76.8738 41.6654C76.8983 40.7296 76.5506 39.8223 75.9071 39.1426Z" fill="white"/>
<path d="M51.1626 76.1017L37.698 61.9138C37.5006 61.7058 37.3939 61.4279 37.4014 61.1413C37.4089 60.8547 37.53 60.5828 37.7379 60.3854L40.9797 57.3089C41.1877 57.1116 41.4655 57.0049 41.7521 57.0124C42.0388 57.0199 42.3107 57.1409 42.508 57.3489L55.9726 71.5369C56.17 71.7448 56.2767 72.0227 56.2692 72.3093C56.2617 72.5959 56.1406 72.8679 55.9327 73.0652L52.6909 76.1417C52.4829 76.3391 52.2051 76.4457 51.9185 76.4382C51.6318 76.4307 51.3599 76.3097 51.1626 76.1017ZM40.0105 61.2096L51.9867 73.8292L53.6601 72.2411L41.6839 59.6215L40.0105 61.2096Z" fill="white"/>
<path d="M30.1693 82.6484C29.7003 82.1059 29.404 81.4359 29.3181 80.724C29.2322 80.0121 29.3608 79.2908 29.6873 78.6524C30.5727 76.4952 31.1733 74.2317 31.4738 71.9193C32.1117 67.971 32.6154 64.852 39.5515 61.772C39.7555 61.6812 39.9827 61.6558 40.2017 61.6993C40.4207 61.7428 40.6209 61.8531 40.7748 62.015L51.2113 73.0122C51.3652 73.1743 51.4651 73.38 51.4972 73.6012C51.5294 73.8224 51.4922 74.0481 51.3908 74.2473C50.5365 76.0714 49.3818 77.739 47.975 79.1805C45.7621 81.2806 43.4962 81.5471 40.8729 81.8562C38.5691 82.0569 36.3004 82.5511 34.1218 83.3268C33.4715 83.6207 32.7482 83.7137 32.0448 83.5936C31.3413 83.4736 30.6897 83.146 30.1737 82.6531L30.1693 82.6484ZM39.7385 64.0641C34.5353 66.5264 34.1987 68.6076 33.609 72.2658C33.2803 74.7497 32.6317 77.1807 31.6794 79.4983C31.3852 80.1903 31.4079 80.8126 31.7391 81.1615C32.0665 81.5066 32.6793 81.557 33.3765 81.3007C35.7149 80.4669 38.1496 79.9327 40.6223 79.7108C43.1345 79.4133 44.7974 79.2197 46.4889 77.6145C47.5487 76.5334 48.4342 75.2943 49.1138 73.9415L39.7385 64.0641Z" fill="white"/>
<path d="M37.5606 75.5816C37.2517 75.2291 37.0538 74.7932 36.9918 74.3285C36.9298 73.8639 37.0064 73.3914 37.2121 72.9702C37.6475 71.9084 37.9431 70.7947 38.0918 69.6568C38.4169 67.6671 38.6988 65.9509 41.9449 64.3473C42.1517 64.2462 42.3855 64.2138 42.612 64.2548C42.8386 64.2958 43.0462 64.4081 43.2045 64.5753L48.7859 70.4565C48.9443 70.6234 49.0453 70.8365 49.0742 71.0647C49.1032 71.2929 49.0586 71.5244 48.9469 71.7256C48.5392 72.4994 48.0175 73.2075 47.3993 73.8263C46.3117 74.7842 44.9166 75.3202 43.4674 75.3369C42.3343 75.4367 41.2184 75.6798 40.1465 76.0606C39.717 76.2448 39.2427 76.2979 38.7831 76.2132C38.3235 76.1286 37.8992 75.9099 37.5636 75.5847L37.5606 75.5816ZM42.201 66.6588C40.6134 67.5961 40.4795 68.4177 40.2209 70.0031C40.0456 71.3111 39.7024 72.5911 39.1998 73.8114C39.1533 73.9022 39.1324 74.0039 39.1393 74.1057C39.1407 74.082 39.2384 74.0877 39.396 74.0291C40.629 73.5875 41.9133 73.3048 43.2178 73.1877C44.1985 73.2121 45.1551 72.8817 45.9117 72.2572C46.1924 71.9815 46.441 71.6751 46.6529 71.3436L42.201 66.6588Z" fill="white"/>
<path d="M52.0401 61.7927C51.8427 61.5847 51.7361 61.3068 51.7436 61.0202C51.7511 60.7336 51.8721 60.4617 52.0801 60.2643L56.6769 55.9019C56.8849 55.7045 57.1627 55.5978 57.4493 55.6053C57.736 55.6128 58.0079 55.7339 58.2052 55.9419C58.4026 56.1498 58.5093 56.4277 58.5018 56.7143C58.4943 57.001 58.3732 57.2729 58.1653 57.4702L53.5685 61.8327C53.3605 62.03 53.0826 62.1367 52.796 62.1292C52.5094 62.1217 52.2375 62.0007 52.0401 61.7927Z" fill="white"/>
<path d="M48.5617 58.0885C48.3644 57.8805 48.2577 57.6027 48.2652 57.316C48.2727 57.0294 48.3937 56.7575 48.6017 56.5601L50.6233 54.6416C50.8313 54.4442 51.1091 54.3376 51.3958 54.3451C51.6824 54.3526 51.9543 54.4736 52.1517 54.6816C52.349 54.8896 52.4557 55.1674 52.4482 55.4541C52.4407 55.7407 52.3197 56.0126 52.1117 56.21L50.0901 58.1285C49.8821 58.3258 49.6043 58.4325 49.3176 58.425C49.031 58.4175 48.7591 58.2965 48.5617 58.0885Z" fill="white"/>
<path d="M55.5483 65.4504C55.3509 65.2424 55.2442 64.9645 55.2517 64.6779C55.2592 64.3913 55.3803 64.1194 55.5882 63.922L57.6098 62.0035C57.8178 61.8061 58.0956 61.6994 58.3823 61.7069C58.6689 61.7144 58.9408 61.8355 59.1382 62.0435C59.3355 62.2514 59.4422 62.5293 59.4347 62.8159C59.4272 63.1025 59.3062 63.3744 59.0982 63.5718L57.0766 65.4903C56.8686 65.6877 56.5908 65.7944 56.3042 65.7869C56.0175 65.7794 55.7456 65.6583 55.5483 65.4504Z" fill="white"/>
</g>
<defs>
<clipPath id="clip0">
<rect width="80" height="80" fill="white" transform="translate(58.0294) rotate(46.4984)"/>
</clipPath>
</defs>
</svg>
